<?xml version="1.0" encoding="UTF-8" standalone="no"?>
<!-- Created with Inkscape (http://www.inkscape.org/) -->

<svg
   xmlns:dc="http://purl.org/dc/elements/1.1/"
   xmlns:cc="http://creativecommons.org/ns#"
   xmlns:rdf="http://www.w3.org/1999/02/22-rdf-syntax-ns#"
   xmlns:svg="http://www.w3.org/2000/svg"
   xmlns="http://www.w3.org/2000/svg"
   xmlns:sodipodi="http://sodipodi.sourceforge.net/DTD/sodipodi-0.dtd"
   xmlns:inkscape="http://www.inkscape.org/namespaces/inkscape"
   width="45mm"
   height="7mm"
   viewBox="0 0 44.999999 7.0000002"
   version="1.1"
   id="svg544"
   inkscape:version="0.92.5 (2060ec1f9f, 2020-04-08)"
   sodipodi:docname="line.svg">
  <defs
     id="defs538" />
  <sodipodi:namedview
     id="base"
     pagecolor="#ffffff"
     bordercolor="#666666"
     borderopacity="1.0"
     inkscape:pageopacity="0.0"
     inkscape:pageshadow="2"
     inkscape:zoom="2.8371965"
     inkscape:cx="138.05954"
     inkscape:cy="20.740412"
     inkscape:document-units="mm"
     inkscape:current-layer="layer1"
     showgrid="false"
     inkscape:window-width="1366"
     inkscape:window-height="741"
     inkscape:window-x="0"
     inkscape:window-y="-10"
     inkscape:window-maximized="1" />
  <metadata
     id="metadata541">
    <rdf:RDF>
      <cc:Work
         rdf:about="">
        <dc:format>image/svg+xml</dc:format>
        <dc:type
           rdf:resource="http://purl.org/dc/dcmitype/StillImage" />
        <dc:title></dc:title>
      </cc:Work>
    </rdf:RDF>
  </metadata>
  <g
     inkscape:label="Layer 1"
     inkscape:groupmode="layer"
     id="layer1"
     transform="translate(0,-290)">
    <g
       transform="matrix(0.26458333,0,0,0.26458333,-5.2214141,196.70441)"
       id="Layer1015">
      <path
         d="m 128.1473,371.4963 0.7972,0.8716 0.7866,0.7865 0.8821,0.861 1.0311,0.7866 1.0311,0.7014 1.1054,0.7122 1.1905,0.6272 1.1798,0.5526 1.2754,0.4678 1.35,0.3932 1.3392,0.2338 1.4244,0.234 h 1.5093 l 1.4243,-0.0746 1.5093,-0.1594 1.5838,-0.3932 2.7742,-1.0948 2.2215,-1.6582 1.5838,-1.8813 1.1054,-2.1152 0.712,-2.1258 0.319,-2.0408 0.085,-1.807 -0.2444,-1.4988 -0.3934,-1.3286 -0.7122,-1.4987 -1.031,-1.5731 -1.2648,-1.5625 -1.5838,-1.4986 -1.9026,-1.3394 -2.2959,-1.0948 -2.5403,-0.7866 -0.946,-0.1594 -1.031,-0.1488 -1.0311,-0.085 h -1.1161 l -1.031,0.085 -1.1054,0.0744 -1.1054,0.1595 -1.1161,0.1487 -1.1054,0.319 -1.1904,0.3188 -1.1162,0.3082 -1.1054,0.4678 -1.1054,0.4782 -1.116,0.5422 -1.1055,0.6378 -1.031,0.7014 -1.5838,1.2543 -1.5836,1.4243 -1.5094,1.7219 -1.5838,1.7326 -1.5093,1.8814 -1.4987,1.8918 -1.4243,1.8814 -1.435,1.7326 -1.4242,1.5732 -1.4244,1.4029 -1.3499,1.1055 -1.2648,0.7865 -1.265,0.3934 h -1.1904 l -1.1904,-0.5528 -1.1054,-1.1054 -0.3189,0.3188 0.4783,0.3934 0.4677,0.3932 0.5527,0.3933 0.6378,0.3189 0.6376,0.2338 0.7866,0.1594 0.7972,0.0744 0.8716,-0.1594 1.031,-0.2338 1.0311,-0.4677 1.1054,-0.7121 1.1904,-0.861 1.265,-1.1799 1.3498,-1.488 1.5094,-1.7326 1.4987,-2.1258 0.9566,-1.2542 0.8716,-1.2543 0.8716,-1.1055 0.946,-1.0203 0.8716,-0.9354 0.8716,-0.8716 0.7971,-0.7865 0.8716,-0.7015 1.031,-0.7866 1.031,-0.7866 0.946,-0.627 1.0312,-0.5528 0.8714,-0.5527 0.946,-0.3933 0.8823,-0.3932 0.946,-0.3084 0.7972,-0.3188 0.8716,-0.1594 0.7866,-0.2338 0.712,-0.0744 0.7972,-0.1596 h 0.6272 l 0.7228,-0.0744 h 0.627 0.8716 l 0.9567,0.0744 1.1054,0.1596 1.031,0.1594 1.1055,0.3082 1.1161,0.3932 1.1904,0.3934 1.1054,0.5526 1.0311,0.6272 1.031,0.7866 0.946,0.7866 0.9566,1.0203 0.7122,1.0204 0.7122,1.1798 0.5526,1.3393 0.4039,1.4881 0.2339,2.519 -0.2339,2.2004 -0.7971,1.9557 -1.1161,1.6475 -1.3393,1.4137 -1.5093,1.1054 -1.5094,0.7866 -1.4242,0.5527 -0.7122,0.1489 -0.7866,0.2444 -0.8716,0.1488 -0.9566,0.1594 -1.031,0.1594 h -1.0311 -1.1904 l -1.1798,-0.1594 -1.2756,-0.1594 -1.3392,-0.3932 -1.3499,-0.3828 -1.4243,-0.6378 -1.4349,-0.7758 -1.4988,-0.946 -1.5943,-1.1799 z"
         style="fill:#3490dc;fill-rule:evenodd"
         id="path365"
         inkscape:connector-curvature="0" />
      <path
         d="m 80.8371,360.2613 -0.7866,-0.861 -0.7972,-0.7865 -0.8716,-0.861 -1.031,-0.7866 -1.031,-0.7121 -1.1055,-0.7015 -1.1904,-0.6272 -1.1906,-0.5526 -1.2648,-0.4678 -1.3498,-0.3932 -1.3394,-0.319 -1.4349,-0.1594 -1.4987,-0.0744 -1.4243,0.0744 -1.5094,0.1594 -1.5836,0.3934 -2.7743,1.1798 -2.2214,1.5732 -1.5838,1.9557 -1.1054,2.1258 -0.7228,2.1258 -0.3083,2.0408 -0.085,1.8814 0.2445,1.4988 0.3932,1.3286 0.7122,1.4986 1.031,1.5732 1.2648,1.5625 1.5838,1.4986 1.9026,1.2542 2.2959,1.1056 2.5404,0.7014 0.9566,0.1594 1.0204,0.1596 1.031,0.0744 h 1.1161 1.031 l 1.1054,-0.0744 1.1054,-0.1596 1.1162,-0.1594 1.1054,-0.3082 1.1161,-0.3188 1.1054,-0.319 1.1054,-0.4676 1.116,-0.4677 1.1054,-0.5527 1.1056,-0.6272 1.031,-0.7121 1.5837,-1.2542 1.5944,-1.4137 1.5837,-1.7325 1.4987,-1.722 1.5094,-1.892 1.5093,-1.8814 1.4987,-1.8813 1.4349,-1.7325 1.4244,-1.5731 1.4242,-1.4137 1.3499,-1.0949 1.265,-0.7864 1.2648,-0.3934 1.1904,0.0744 1.1905,0.5528 1.1055,1.0948 0.3188,-0.3082 -0.4783,-0.3934 -0.4677,-0.4782 -0.5527,-0.3084 -0.6377,-0.3932 -0.7122,-0.2338 -0.7122,-0.1594 h -0.8716 l -0.8716,0.0744 -0.9566,0.2338 -1.031,0.4782 -1.1054,0.7016 -1.1905,0.946 -1.2648,1.1798 -1.35,1.4881 -1.5093,1.7326 -1.4987,2.1258 -0.9566,1.2542 -0.8717,1.1798 -0.8714,1.0948 -0.946,1.0204 -0.8716,0.946 -0.8716,0.861 -0.7972,0.8716 -0.8716,0.7015 -1.0311,0.7866 -1.031,0.7121 -0.946,0.6271 -1.031,0.6272 -0.8716,0.4676 -0.9566,0.3934 -0.946,0.3932 -0.8716,0.3189 -0.7972,0.2339 -0.8716,0.2338 -0.7865,0.1594 -0.7972,0.1594 -0.7122,0.0744 -0.7122,0.0744 -0.712,0.085 h -0.6378 -0.8716 l -0.946,-0.085 -1.0311,-0.1488 -1.116,-0.1594 -1.1054,-0.3188 -1.1054,-0.3083 -1.1161,-0.4783 -1.1055,-0.5421 -1.031,-0.6271 -1.031,-0.7122 -0.946,-0.8609 -0.9567,-0.946 -0.712,-1.0948 -0.7122,-1.1798 -0.5528,-1.3394 -0.4038,-1.488 -0.2339,-2.5192 0.2339,-2.2002 0.7972,-1.9664 1.1054,-1.6475 1.3498,-1.4136 1.4244,-1.1054 1.5093,-0.7866 1.4243,-0.5422 0.7121,-0.2338 0.7972,-0.1594 0.8716,-0.1594 0.946,-0.1594 1.031,-0.1488 1.0311,-0.0852 1.1904,0.0852 1.1906,0.0744 1.2648,0.2338 1.3498,0.3188 1.35,0.4678 1.4243,0.627 1.5094,0.7866 1.4986,0.946 1.5838,1.1798 z"
         style="fill:#3490dc;fill-rule:evenodd"
         id="path367"
         inkscape:connector-curvature="0" />
      <path
         d="m 89.3191,374.7169 0.3933,0.5527 0.4783,0.3933 0.5527,0.3189 0.5527,0.1488 h 0.5634 l 0.627,-0.1488 0.6378,-0.2446 0.6378,-0.3932 0.8716,-0.7015 1.2648,-1.0204 1.4243,-1.3393 1.5838,-1.4881 1.5838,-1.6474 1.5836,-1.5732 1.435,-1.6475 1.1905,-1.4243 1.6581,-1.9558 1.5837,-1.7325 1.4244,-1.4137 1.2754,-1.1054 1.2649,-0.9353 1.031,-0.7122 1.031,-0.5422 0.946,-0.3188 0.7972,-0.1594 h 0.7866 l 0.7228,0.0744 0.627,0.1594 0.5528,0.3188 0.5634,0.3084 0.4676,0.3932 0.4039,0.404 -0.3188,0.3082 -0.9567,-0.861 -1.031,-0.3188 -1.1798,0.0744 -1.2755,0.5526 -1.3393,0.8716 -1.4349,1.1692 -1.4244,1.4137 -1.5092,1.5731 -1.5838,1.7325 -1.5838,1.807 -1.5837,1.807 -1.5838,1.807 -1.5092,1.7325 -1.5838,1.5625 -1.4243,1.3393 -1.4243,1.1054 -0.6378,0.3826 -0.8715,0.5528 -1.031,0.4782 -1.1906,0.3082 -1.1798,0.1596 -1.1904,-0.1596 -1.1905,-0.5526 -0.9566,-1.0204 z"
         style="fill:#3490dc;fill-rule:evenodd"
         id="path369"
         inkscape:connector-curvature="0" />
      <path
         d="m 21.5689,365.2145 3.4863,-0.0744 3.8797,-0.085 h 4.1242 l 4.4323,-0.0745 4.6768,-0.0851 h 4.9107 l 5.1551,-0.0744 h 5.3146 5.5377 5.6335 l 5.7823,-0.0744 h 5.8672 5.9417 6.1011 6.0268 6.1755 l 6.1011,0.0744 h 6.1011 6.0267 6.0269 5.8566 l 5.7823,0.0744 h 5.7077 5.5485 l 5.389,0.0851 h 5.1551 l 4.9957,0.0745 h 4.7512 l 4.5173,0.085 h 4.1986 l 3.8797,0.0744 h 3.6457 0.4784 l 0.4782,0.1594 0.319,0.1488 0.1594,0.1594 0.0744,0.1594 -0.2338,0.1596 -0.4784,0.0744 -0.7972,0.085 -4.8255,0.0744 -5.0809,0.085 -5.3038,0.0744 -5.4741,0.0744 -5.6972,0.085 h -5.7928 -5.9418 -6.1011 -6.1755 -6.2606 -6.2712 -6.3349 l -6.2606,-0.085 h -6.3349 -6.2607 l -6.1861,-0.0744 -6.1011,-0.0744 h -5.9417 l -5.8673,-0.085 H 70.378 l -5.5485,-0.0744 H 59.4406 54.296 l -4.8363,-0.085 h -4.6767 -4.358 -4.0391 -3.6458 -3.4119 -3.008 -2.5404 l -2.2109,0.085 h -0.7228 l -0.5526,-0.085 -0.3934,-0.1489 -0.1594,-0.2445 0.0744,-0.1594 0.3188,-0.1488 0.5634,-0.085 z"
         style="fill:#3490dc;fill-rule:evenodd"
         id="path371"
         inkscape:connector-curvature="0" />
      <path
         d="m 80.6031,374.6425 0.6378,-0.1595 0.4677,0.6272 0.4783,0.4783 0.4783,0.3083 0.5528,0.1594 0.6377,0.0744 0.6271,-0.0744 0.6378,-0.319 0.7122,-0.3932 0.8716,-0.7015 1.2648,-1.0204 1.4349,-1.3393 1.5838,-1.4881 1.5838,-1.6474 1.5836,-1.5732 1.4244,-1.6475 1.2648,-1.4243 1.6688,-1.9558 1.5093,-1.7325 1.4244,-1.4137 1.3498,-1.1054 1.1905,-0.9353 1.1054,-0.7122 0.946,-0.5422 0.9566,-0.3188 0.8716,-0.1594 h 0.7122 l 0.7122,0.0744 0.6376,0.1594 0.6272,0.3188 0.4783,0.3084 0.4783,0.3932 0.4677,0.404 -0.3082,0.3082 -0.9567,-0.861 -1.031,-0.3188 -1.1904,0.0744 -1.2649,0.5526 -1.3499,0.8716 -1.4243,1.1692 -1.4988,1.4137 -1.5092,1.5731 -1.5838,1.7325 -1.5838,1.807 -1.5093,1.807 -1.5838,1.807 -1.5836,1.7325 -1.5094,1.5625 -1.4243,1.3393 -1.4243,1.1054 -0.7122,0.3826 -0.8716,0.5528 -1.1161,0.4782 -1.2648,0.3828 -1.2648,0.085 -1.2756,-0.2339 -1.1054,-0.7121 z"
         style="fill:#3490dc;fill-rule:evenodd"
         id="path373"
         inkscape:connector-curvature="0" />
      <path
         d="m 97.3228,374.7169 0.4783,0.5527 0.4783,0.3933 0.4677,0.3189 0.5633,0.1488 h 0.6272 l 0.5528,-0.1488 0.7226,-0.2446 0.6272,-0.3932 0.8716,-0.7015 1.2755,-1.0204 1.4243,-1.3393 1.5837,-1.4881 1.5838,-1.6474 1.5838,-1.5732 1.4242,-1.6475 1.1905,-1.4243 1.6688,-1.9558 1.5838,-1.7325 1.4242,-1.4137 1.2648,-1.1054 1.2756,-0.9353 1.0311,-0.7122 1.0203,-0.5422 0.9567,-0.3188 0.7971,-0.1594 h 0.7865 l 0.7122,0.0744 0.6378,0.1594 0.5527,0.3188 0.5527,0.3084 0.4783,0.3932 0.3933,0.404 -0.3189,0.3082 -0.946,-0.861 -1.031,-0.3188 -1.1905,0.0744 -1.2648,0.5526 -1.35,0.8716 -1.4242,1.1692 -1.5094,1.4137 -1.4987,1.5731 -1.5094,1.7325 -1.5836,1.807 -1.5838,1.807 -1.5838,1.807 -1.5093,1.7325 -1.5838,1.5625 -1.4242,1.3393 -1.435,1.1054 -0.6271,0.3826 -0.8716,0.5528 -1.031,0.4782 -1.1904,0.3082 -1.1906,0.1596 -1.1904,-0.1596 -1.1905,-0.5526 -0.946,-1.0204 z"
         style="fill:#3490dc;fill-rule:evenodd"
         id="path375"
         inkscape:connector-curvature="0" />
    </g>
  </g>
</svg>
